<svg width="2209" height="2416" viewBox="0 0 2209 2416" fill="none" xmlns="http://www.w3.org/2000/svg">
<path d="M0 1468C0 1412.77 44.7715 1368 100 1368H781C797.569 1368 811 1381.43 811 1398V2366C811 2393.61 788.614 2416 761 2416H100C44.7715 2416 0 2371.23 0 2316V1468Z" fill="#932323"/>
<path d="M0 2323C0 2295.39 22.3858 2273 50 2273H736V2416H50C22.3858 2416 0 2393.61 0 2366V2323Z" fill="#EFEFEF"/>
<path d="M70 1391C70 1378.3 80.2975 1368 93 1368H771C793.091 1368 811 1385.91 811 1408V2223C811 2250.61 788.614 2273 761 2273H70V1391Z" fill="#EE4141"/>
<rect x="47" y="2296" width="246" height="32" rx="16" fill="#0ABAD2"/>
<rect x="163" y="2351" width="242" height="32" rx="16" fill="#EF0000"/>
<rect x="482" y="2351" width="242" height="32" rx="16" fill="#5AC506"/>
<rect x="317" y="2296" width="246" height="32" rx="16" fill="#733AED"/>
<rect x="603" y="2296" width="133" height="32" rx="16" fill="#F0E705" fill-opacity="0.83"/>
<ellipse cx="263.5" cy="1716.17" rx="141.5" ry="135.915" fill="#FDF5F5"/>
<ellipse cx="405" cy="1634.91" rx="141.5" ry="135.915" fill="#FDF5F5"/>
<ellipse cx="405" cy="1770.83" rx="141.5" ry="135.915" fill="#FDF5F5"/>
<ellipse cx="546.5" cy="1716.17" rx="141.5" ry="135.915" fill="#FDF5F5"/>
<rect x="250.234" y="1716.17" width="313.953" height="336.832" fill="#FDF5F5"/>
<rect x="250" y="2015" width="314" height="38" fill="#C4C4C4"/>
<rect width="33.696" height="140.114" rx="16.848" transform="matrix(0.804184 0.59438 -0.595297 0.803506 524.323 1662)" fill="#C4C4C4"/>
<rect width="47.4591" height="13.1474" rx="6.57372" transform="matrix(0.804184 0.59438 -0.595297 0.803506 436.531 1768.54)" fill="#C4C4C4"/>
<rect width="37.4927" height="9.39104" rx="4.69552" transform="matrix(0.804184 0.59438 -0.595297 0.803506 444.978 1765.9)" fill="#C4C4C4"/>
<rect width="19.4582" height="24.041" rx="9.72912" transform="matrix(0.804184 0.59438 -0.595297 0.803506 526.694 1670.76)" fill="#FDF9F9"/>
<rect width="95.6719" height="125.567" rx="47.8359" transform="matrix(0.802802 0.596246 -0.597166 0.802118 408.904 1762.29)" fill="#C4C4C4"/>
<ellipse rx="40.9858" ry="59.2041" transform="matrix(0.783697 0.621143 -0.622094 0.782942 409.73 1843.74)" fill="white"/>
<rect width="49.9018" height="123.068" rx="24.9509" transform="matrix(0.802802 0.596246 -0.597165 0.802118 426.626 1777.83)" fill="#C4C4C4"/>
<path d="M429.896 1844.46C412.612 1867.33 382.208 1895.77 374.2 1889.73C366.192 1883.69 383.611 1845.46 400.896 1822.59C418.181 1799.73 438.685 1786.09 446.693 1792.13C454.701 1798.17 447.181 1821.6 429.896 1844.46Z" fill="white"/>
<ellipse cx="407" cy="1940" rx="97" ry="65" fill="#C4C4C4"/>
<rect x="310" y="1875" width="194" height="71.303" fill="#C4C4C4"/>
<path fill-rule="evenodd" clip-rule="evenodd" d="M2140.2 0.315994C2132.47 0.20245 2126.2 6.3784 2126.19 14.1104L2126.02 256.267C2126.01 263.999 2132.28 270.359 2140.01 270.473L2194.32 271.27C2202.05 271.384 2208.32 265.208 2208.33 257.476L2208.5 15.3192C2208.51 7.58725 2202.25 1.22719 2194.52 1.11365L2140.2 0.315994Z" fill="#F31616"/>
<path fill-rule="evenodd" clip-rule="evenodd" d="M941 1637L870.482 1679L941 1721H811V1637H941Z" fill="#F0E705" fill-opacity="0.83"/>
<path fill-rule="evenodd" clip-rule="evenodd" d="M962 1768L880.091 1810L962 1852H811V1768H962Z" fill="#292D32"/>
<path fill-rule="evenodd" clip-rule="evenodd" d="M916 1514L859.043 1554.5L916 1595H811V1514H916Z" fill="#31D3EA"/>
</svg>
